# xmcd
#
# Track frame offsets:
#	150
#	14765
#	32330
#	52680
#	68322
#	82055
#	95977
#	111900
#	129905
#	142895
#	162395
#	178085
#	189910
#	204935
#
# Disc length: 2994
#
# Revision: 3
# Processed by: cddbd v1.5.1PL0 Copyright (c) Steve Scherf et al.
# Submitted via: VisiTrax 2.9.5.180 - For more info visit www.synapsa.com
# Normalized: r2:DSETVAR1
#
DISCID=b20bb00e
DTITLE=Various Artist - Mr. Music Country 12-97
DYEAR=1997
DGENRE=
TTITLE0=Alan Jackson - I Only Want You for Christmas
TTITLE1=Lila McCann - Down Came a Blackbird
TTITLE2=Ranger Doug Green - Virgin Maria (Why Are You Weeping?)
TTITLE3=Randy Travis - King of the Road
TTITLE4=Confederate railroad - The One You Love the Most
TTITLE5=Michael Martin Murphy - Christmas on the Line
TTITLE6=Dwight Yoakam - North to Alaska
TTITLE7=Anita Cochran - One of Those Days
TTITLE8=Legacy - Rodeo Man
TTITLE9=Tish Hinojosa - Sacrifices
TTITLE10=Texas Tornados - Doug Sahm - Little Bit is Better Than Nada
TTITLE11=Red Stegall - Forty and Found
TTITLE12=Juliana - Make Believin'
TTITLE13=Sons of San Joaquin - From Whence Came the Cowboy
EXTD=
EXTT0=
EXTT1=
EXTT2=
EXTT3=
EXTT4=
EXTT5=
EXTT6=
EXTT7=
EXTT8=
EXTT9=
EXTT10=
EXTT11=
EXTT12=
EXTT13=
PLAYORDER=
